# 3ds Max Wavefront OBJ Exporter v0.99 - (c)2007 guruware
# ÆÄÀÏ »ý¼ºµÊ: 29.11.2022 00:27:24

#
# object Pyramid001
#

v  0.0000 1.0000 -0.0000
v  -0.5000 0.0000 0.5000
v  0.5000 0.0000 0.5000
v  0.5000 0.0000 -0.5000
v  -0.5000 0.0000 -0.5000
v  -0.0000 -1.0000 -0.0000
# 6 vertices

vn 0.0000 0.4472 0.8944
vn 0.8944 0.4472 -0.0000
vn 0.0000 0.4472 -0.8944
vn -0.8944 0.4472 -0.0000
vn -0.5774 -0.5774 0.5774
vn 0.0000 -1.0000 -0.0000
vn 0.5774 -0.5774 0.5774
vn 0.5774 -0.5774 -0.5774
vn -0.5774 -0.5774 -0.5774
# 9 vertex normals

o Pyramid001
g Pyramid001
f 1//1 2//1 3//1 
f 1//2 3//2 4//2 
f 1//3 4//3 5//3 
f 1//4 5//4 2//4 
f 2//5 6//6 3//7 
f 3//7 6//6 4//8 
f 4//8 6//6 5//9 
f 5//9 6//6 2//5 
# 8 faces

