# 3ds Max Wavefront OBJ Exporter v0.99 - (c)2007 guruware
# File Created: 07.12.2022 22:33:06

#
# object polygon0
#

v  -7.8425 26.0550 8.5775
v  -7.0027 26.1661 9.1657
v  -5.4695 30.9813 6.2436
v  -5.4011 29.5926 7.3412
v  -2.5398 27.6755 9.5091
v  -3.2917 27.2570 9.7453
v  6.4348 26.1661 9.1657
v  7.2747 26.0550 8.5775
v  4.8333 29.5926 7.3412
v  4.9016 30.9813 6.2436
v  2.7239 27.2570 9.7453
v  1.9719 27.6755 9.5091
v  -8.9167 23.8818 9.7985
v  -7.9499 24.0300 10.3494
v  -2.0906 25.9285 11.1761
v  -1.3093 26.2611 10.9672
v  7.3821 24.0300 10.3494
v  8.3489 23.8818 9.7985
v  0.7415 26.2611 10.9672
v  1.5227 25.9285 11.1761
# 20 vertices

vn -0.5245 0.5575 0.6435
vn -0.4484 0.5637 0.6937
vn -0.3628 0.5823 0.7275
vn -0.2280 0.6110 0.7581
vn -0.1559 0.6288 0.7618
vn -0.1286 0.6525 0.7468
vn 0.5181 0.5779 0.6305
vn 0.4744 0.5637 0.6761
vn 0.3915 0.5805 0.7140
vn 0.2571 0.6017 0.7562
vn 0.1679 0.6214 0.7653
vn 0.1195 0.6421 0.7572
vn -0.4913 0.5882 0.6424
vn -0.4643 0.5971 0.6542
vn -0.5178 0.5787 0.6300
vn -0.1155 0.6700 0.7333
vn -0.1393 0.6646 0.7341
vn -0.0916 0.6750 0.7321
vn 0.4913 0.5882 0.6424
vn 0.5178 0.5787 0.6300
vn 0.4643 0.5971 0.6542
vn 0.1155 0.6700 0.7333
vn 0.0916 0.6750 0.7321
vn 0.1393 0.6646 0.7341
# 24 vertex normals

vt 0.6797 -0.1016 0.0000
vt 0.6797 -0.2031 0.0000
vt 0.5469 -0.1016 0.0000
vt 0.5469 -0.2031 0.0000
vt 0.4297 -0.1016 0.0000
vt 0.4297 -0.2031 0.0000
vt 0.6934 -0.3174 0.0000
vt 0.7168 -0.3174 0.0000
vt 0.7168 -0.4112 0.0000
vt 0.6934 -0.4112 0.0000
vt 0.4590 -0.3174 0.0000
vt 0.4590 -0.4112 0.0000
vt 0.4278 -0.4112 0.0000
vt 0.4278 -0.3174 0.0000
# 14 texture coords

o polygon0
g polygon0
f 1/1/1 2/2/2 3/3/3 
f 2/2/2 4/4/4 3/3/3 
f 3/3/3 4/4/4 5/5/5 
f 4/4/4 6/6/6 5/5/5 
f 7/2/7 8/1/8 9/4/9 
f 8/1/8 10/3/10 9/4/9 
f 9/4/9 10/3/10 11/6/11 
f 10/3/10 12/5/12 11/6/11 
f 1/7/13 13/8/14 14/9/13 
f 1/7/13 14/9/13 2/10/15 
f 5/11/16 6/12/17 15/13/16 
f 5/11/16 15/13/16 16/14/18 
f 8/7/19 7/10/20 17/9/19 
f 8/7/19 17/9/19 18/8/21 
f 12/11/22 19/14/23 20/13/22 
f 12/11/22 20/13/22 11/12/24 
# 16 faces

